<?xml version="1.0" standalone="no"?>
<!DOCTYPE svg PUBLIC "-//W3C//DTD SVG 20010904//EN"
 "http://www.w3.org/TR/2001/REC-SVG-20010904/DTD/svg10.dtd">
<svg version="1.0" xmlns="http://www.w3.org/2000/svg"
 width="70px" height="70px" viewBox="0 0 300.000000 300.000000"
 preserveAspectRatio="xMidYMid meet">
<metadata>
Created by potrace 1.10, written by Peter Selinger 2001-2011
</metadata>
<g transform="translate(0.000000,300.000000) scale(0.100000,-0.100000)"
fill="#000000" stroke="none">
<path d="M1218 2985 c-378 -64 -759 -319 -977 -655 -127 -194 -233 -503 -230
-670 1 -48 3 -43 14 42 97 706 667 1246 1360 1288 l110 7 -100 0 c-55 1 -134
-5 -177 -12z"/>
<path d="M1645 2989 c175 -13 345 -59 510 -139 427 -206 724 -594 814 -1064
26 -134 29 -415 6 -546 -73 -417 -310 -777 -660 -1002 -144 -93 -300 -158
-490 -204 -84 -20 -91 -23 -44 -19 80 7 217 48 334 100 438 196 748 571 858
1039 19 80 21 121 22 346 0 245 -1 259 -27 362 -72 284 -199 509 -398 708 -58
58 -145 133 -194 167 -221 156 -534 265 -748 262 l-83 -2 100 -8z"/>
<path d="M710 1722 c0 -55 4 -92 10 -92 6 0 10 34 10 82 l0 81 598 -6 c328 -4
702 -7 830 -7 l232 0 0 -80 c0 -47 4 -80 10 -80 6 0 10 37 10 90 l0 90 -37 0
c-21 0 -404 3 -850 7 l-813 6 0 -91z"/>
<path d="M4 1505 c0 -55 1 -76 3 -47 2 29 2 74 0 100 -2 26 -3 2 -3 -53z"/>
<path d="M210 1557 c0 -9 -9 -36 -20 -61 -19 -44 -19 -46 -1 -46 12 0 18 7 17
18 -1 11 6 17 19 17 13 0 20 -6 19 -17 -1 -13 6 -18 24 -18 24 0 24 1 9 18 -9
10 -23 36 -30 57 -14 39 -37 59 -37 32z m20 -42 c0 -8 -4 -15 -10 -15 -5 0
-10 7 -10 15 0 8 5 15 10 15 6 0 10 -7 10 -15z"/>
<path d="M328 1558 c16 -16 16 -80 0 -96 -9 -9 -3 -12 28 -12 66 0 100 63 56
103 -22 20 -104 25 -84 5z m80 -46 c2 -23 -2 -34 -18 -42 -30 -16 -39 -5 -35
43 2 23 4 43 4 44 1 1 11 -1 24 -6 15 -6 23 -18 25 -39z"/>
<path d="M486 1523 c13 -25 24 -52 24 -60 0 -29 19 -10 36 35 10 26 22 53 27
60 7 9 3 12 -12 12 -12 0 -20 -4 -17 -9 3 -5 0 -25 -7 -46 l-13 -37 -12 38
c-6 20 -9 41 -6 46 3 4 -6 8 -19 8 l-24 0 23 -47z"/>
<path d="M625 1508 l0 -63 40 0 c30 0 41 5 43 18 2 9 -1 17 -7 17 -6 0 -11 -4
-11 -10 0 -5 -9 -10 -20 -10 -14 0 -20 7 -20 21 0 16 5 20 20 16 14 -4 20 0
20 12 0 9 5 22 11 28 18 18 1 33 -39 33 l-37 0 0 -62z m54 16 c-17 -21 -29
-17 -29 11 0 23 2 24 21 15 16 -9 18 -14 8 -26z"/>
<path d="M758 1557 c6 -7 9 -22 7 -33 -15 -75 -15 -84 4 -84 16 0 18 6 14 48
l-5 47 32 -42 c17 -24 36 -43 41 -43 6 0 8 4 5 8 -3 5 -2 32 3 60 7 46 6 52
-10 52 -14 0 -16 -6 -12 -40 3 -22 3 -40 1 -40 -3 0 -18 18 -33 40 -15 22 -34
40 -43 40 -11 0 -12 -3 -4 -13z"/>
<path d="M911 1547 c0 -12 3 -16 6 -9 2 6 11 12 19 12 10 0 14 -13 14 -45 0
-25 -4 -45 -10 -45 -5 0 -10 -4 -10 -9 0 -5 10 -8 23 -8 22 0 23 2 20 61 -4
56 -3 60 11 42 17 -21 32 -16 23 8 -4 10 -21 14 -51 14 -41 0 -46 -2 -45 -21z"/>
<path d="M1058 1518 c5 -61 16 -78 47 -78 31 0 42 17 47 78 4 43 2 52 -11 52
-13 0 -15 -10 -13 -55 4 -54 3 -55 -23 -55 -27 0 -27 1 -23 55 4 47 2 55 -12
55 -14 0 -16 -8 -12 -52z"/>
<path d="M1218 1519 c3 -31 0 -54 -8 -64 -11 -13 -8 -15 14 -15 22 0 25 3 19
18 -5 9 -7 26 -7 37 1 11 2 28 3 38 1 23 31 22 31 -2 0 -11 -5 -21 -11 -23
-17 -6 18 -68 37 -68 13 0 12 5 -5 26 -17 21 -18 29 -8 45 17 27 -2 54 -40 55
-30 1 -30 1 -25 -47z"/>
<path d="M1358 1518 c3 -30 0 -54 -8 -63 -11 -13 -6 -15 34 -15 35 0 48 4 53
17 4 9 1 19 -5 21 -7 2 -12 13 -12 24 0 15 -5 18 -20 13 -16 -5 -20 -2 -20 14
0 23 19 27 39 9 10 -11 12 -9 9 7 -3 15 -11 20 -39 20 l-36 1 5 -48z m50 -30
c18 -18 15 -28 -8 -28 -13 0 -20 7 -20 20 0 23 10 26 28 8z"/>
<path d="M1585 1520 c-9 -27 -21 -52 -26 -55 -16 -10 -10 -25 10 -25 14 0 18
5 14 21 -5 17 -2 20 18 17 16 -2 24 -9 23 -21 -1 -12 6 -17 24 -17 23 0 24 1
10 18 -8 9 -23 38 -33 65 -10 26 -19 47 -21 47 -1 0 -10 -22 -19 -50z m25 -12
c0 -16 -3 -19 -11 -11 -6 6 -8 16 -5 22 11 17 16 13 16 -11z"/>
<path d="M1720 1561 c-14 -4 -20 -10 -14 -14 11 -7 11 -78 -1 -97 -4 -6 5 -10
21 -10 22 0 25 3 16 12 -18 18 -14 38 7 38 10 0 24 7 31 15 25 30 -14 67 -60
56z m45 -37 c0 -10 -8 -20 -17 -22 -18 -3 -26 27 -11 42 12 11 28 0 28 -20z"/>
<path d="M1841 1509 c-1 -29 -4 -56 -7 -60 -3 -5 7 -9 22 -9 22 0 25 3 16 12
-18 18 -14 36 9 40 54 8 44 68 -11 68 -25 0 -27 -3 -29 -51z m54 15 c0 -10 -8
-20 -17 -22 -18 -3 -26 27 -11 42 12 11 28 0 28 -20z"/>
<path d="M1990 1548 c0 -7 -11 -34 -24 -60 -22 -45 -22 -48 -5 -48 12 0 19 7
19 20 0 13 7 20 20 20 18 0 25 -10 21 -32 0 -5 9 -8 20 -8 16 0 19 3 12 13 -6
6 -18 33 -28 60 -17 44 -35 62 -35 35z m20 -44 c0 -8 -4 -14 -10 -14 -5 0 -10
9 -10 21 0 11 5 17 10 14 6 -3 10 -13 10 -21z"/>
<path d="M2105 1500 c0 -57 1 -60 25 -60 19 0 21 3 12 12 -7 7 -12 18 -12 25
0 22 20 14 30 -12 5 -14 16 -25 25 -25 14 0 14 3 0 24 -13 20 -14 29 -5 46 15
29 -3 50 -44 50 l-31 0 0 -60z m61 11 c-11 -18 -36 -13 -36 7 0 10 3 22 7 26
10 10 37 -20 29 -33z"/>
<path d="M2245 1500 l0 -60 43 0 c33 0 42 4 42 17 0 13 -3 14 -12 5 -20 -20
-48 -15 -48 9 0 18 4 20 26 15 22 -6 25 -4 20 9 -3 9 -6 18 -6 20 0 2 -9 1
-21 -2 -17 -5 -20 -2 -17 13 4 19 10 21 41 9 12 -5 17 -2 17 9 0 12 -10 16
-42 16 l-43 0 0 -60z"/>
<path d="M2385 1500 l0 -60 38 0 c28 0 37 4 37 17 0 13 -3 14 -12 5 -28 -28
-40 -14 -36 43 2 44 0 55 -12 55 -12 0 -15 -13 -15 -60z"/>
<path d="M2597 1542 c-40 -44 -6 -121 48 -108 14 4 25 11 25 17 0 6 -9 8 -20
4 -12 -4 -27 -1 -35 5 -22 18 -19 67 4 80 26 13 31 13 31 -5 0 -8 5 -15 11
-15 6 0 9 8 7 18 -5 24 -50 27 -71 4z"/>
<path d="M2736 1544 c-34 -34 -9 -114 36 -114 24 0 48 34 48 68 0 34 -22 62
-50 62 -10 0 -26 -7 -34 -16z m53 -8 c7 -8 11 -30 9 -48 -2 -28 -7 -33 -28
-33 -21 0 -26 5 -28 33 -3 31 11 62 28 62 4 0 13 -6 19 -14z"/>
<path d="M2870 1445 c0 -9 5 -15 11 -13 6 2 11 8 11 13 0 5 -5 11 -11 13 -6 2
-11 -4 -11 -13z"/>
<path d="M12 1343 c-4 -128 63 -365 154 -544 139 -272 383 -513 659 -651 145
-73 350 -139 427 -137 20 0 1 7 -52 18 -514 110 -933 477 -1104 970 -33 95
-71 265 -79 356 -3 35 -4 34 -5 -12z"/>
<path d="M156 1333 c-4 -9 -3 -20 1 -24 15 -14 46 -14 51 0 3 10 -2 11 -18 6
-16 -5 -21 -4 -18 6 3 8 13 13 23 11 10 -2 14 1 10 7 -10 17 -42 13 -49 -6z"/>
<path d="M250 1321 c0 -22 4 -29 17 -27 9 2 19 8 21 14 2 8 -3 10 -13 5 -14
-5 -16 -2 -10 15 4 13 2 22 -4 22 -6 0 -11 -13 -11 -29z"/>
<path d="M329 1334 c-11 -14 -11 -18 5 -29 24 -18 48 -8 44 19 -4 26 -30 32
-49 10z m31 -16 c0 -18 -2 -20 -9 -8 -6 8 -7 18 -5 22 9 14 14 9 14 -14z"/>
<path d="M420 1340 c0 -5 5 -10 10 -10 6 0 10 -9 10 -20 0 -11 5 -20 11 -20 6
0 9 9 6 20 -3 11 -1 20 4 20 5 0 9 5 9 10 0 6 -11 10 -25 10 -14 0 -25 -4 -25
-10z"/>
<path d="M513 1325 c0 -14 3 -28 8 -31 5 -3 9 9 9 25 0 17 -4 31 -9 31 -5 0
-8 -11 -8 -25z"/>
<path d="M550 1319 c0 -18 3 -29 7 -25 10 10 11 46 1 52 -4 3 -8 -9 -8 -27z"/>
<path d="M613 1320 c0 -25 4 -30 24 -30 13 0 23 5 23 11 0 6 -7 9 -15 5 -10
-4 -15 1 -15 14 0 13 5 18 15 14 8 -4 15 -1 15 5 0 6 -10 11 -23 11 -20 0 -24
-5 -24 -30z"/>
<path d="M711 1341 c-11 -7 -11 -13 2 -31 16 -22 28 -16 23 13 -3 23 -9 27
-25 18z"/>
<path d="M1060 1335 c-7 -8 -10 -22 -6 -30 6 -17 42 -20 52 -4 4 8 -1 9 -16 4
-18 -6 -21 -4 -18 12 2 10 10 17 16 16 7 -2 12 2 12 7 0 15 -26 12 -40 -5z"/>
<path d="M1155 1336 c-25 -18 -13 -46 20 -46 14 0 25 5 25 10 0 6 -7 10 -16 8
-10 -2 -19 3 -21 10 -3 7 4 12 17 12 12 0 18 5 15 10 -8 13 -18 13 -40 -4z"/>
<path d="M1258 1342 c-26 -5 -24 -52 2 -52 11 0 20 5 20 11 0 5 -4 7 -10 4 -5
-3 -10 0 -10 9 0 8 6 16 13 19 17 6 5 14 -15 9z"/>
<path d="M812 1331 c4 -13 18 -16 19 -4 0 4 -5 9 -11 12 -7 2 -11 -2 -8 -8z"/>
<path d="M972 1319 c-7 -12 -11 -24 -7 -27 3 -4 10 0 14 7 7 11 9 11 13 0 8
-22 18 -5 11 19 -7 28 -15 28 -31 1z"/>
<path d="M1320 1332 c0 -4 6 -14 13 -21 10 -11 10 -13 0 -7 -7 4 -13 2 -13 -3
0 -13 36 -15 44 -3 3 5 -4 16 -15 25 -21 19 -29 21 -29 9z"/>
<path d="M1410 1330 c1 -12 30 -43 36 -37 4 4 2 13 -5 21 -9 11 -9 15 1 19 7
3 3 4 -9 4 -13 -1 -23 -4 -23 -7z"/>
<path d="M1492 1318 c2 -15 11 -24 26 -26 18 -3 22 1 22 22 0 21 -5 26 -26 26
-21 0 -25 -4 -22 -22z m33 3 c3 -5 1 -12 -5 -16 -5 -3 -10 1 -10 9 0 18 6 21
15 7z"/>
<path d="M1590 1316 c0 -18 5 -23 23 -23 22 0 25 8 18 47 -1 3 -6 -2 -11 -10
-6 -10 -10 -11 -10 -2 0 6 -4 12 -10 12 -5 0 -10 -11 -10 -24z"/>
<path d="M1680 1315 c0 -14 5 -25 10 -25 6 0 10 11 10 25 0 14 -4 25 -10 25
-5 0 -10 -11 -10 -25z"/>
<path d="M1750 1315 c0 -18 5 -25 20 -25 11 0 20 5 20 11 0 5 -4 7 -10 4 -5
-3 -10 1 -10 10 0 9 5 13 10 10 6 -3 10 -1 10 4 0 6 -9 11 -20 11 -15 0 -20
-7 -20 -25z"/>
<path d="M1833 1314 c0 -13 4 -24 9 -24 5 0 6 5 3 10 -3 6 -1 10 4 10 6 0 11
-5 11 -11 0 -5 5 -7 10 -4 8 5 8 11 1 19 -6 7 -9 15 -6 17 2 3 -4 5 -14 6 -13
1 -18 -5 -18 -23z"/>
<path d="M1947 1334 c-8 -8 1 -24 14 -24 5 0 9 7 9 15 0 15 -12 20 -23 9z"/>
<path d="M2101 1326 c-9 -11 -8 -18 5 -30 18 -18 35 -17 42 2 2 7 -2 10 -12 6
-10 -4 -16 -1 -16 10 0 10 6 13 15 10 8 -4 15 -1 15 5 0 16 -35 14 -49 -3z"/>
<path d="M2197 1334 c-12 -12 -8 -42 6 -47 21 -8 39 8 35 29 -3 19 -29 30 -41
18z m25 -36 c-9 -9 -12 -7 -12 12 0 19 3 21 12 12 9 -9 9 -15 0 -24z"/>
<path d="M2290 1323 c0 -7 5 -13 10 -13 6 0 10 -4 10 -10 0 -5 -8 -7 -17 -4
-14 5 -15 4 -4 -4 15 -11 41 -5 41 8 0 5 -5 12 -11 16 -8 4 -7 9 2 15 10 6 7
8 -9 6 -12 0 -22 -7 -22 -14z"/>
<path d="M2374 1314 c1 -21 5 -25 23 -21 12 2 24 -1 27 -7 2 -6 5 4 5 22 1 17
-3 32 -9 32 -5 0 -10 -8 -10 -17 -1 -17 -1 -17 -14 0 -18 24 -24 21 -22 -9z"/>
<path d="M2480 1310 c0 -23 4 -30 20 -30 11 0 20 5 20 11 0 5 -4 7 -10 4 -5
-3 -10 3 -10 15 0 12 5 18 10 15 6 -3 10 -1 10 4 0 6 -9 11 -20 11 -16 0 -20
-7 -20 -30z"/>
<path d="M2560 1330 c0 -5 5 -10 10 -10 6 0 10 -7 8 -16 -2 -10 3 -19 10 -21
6 -3 12 2 12 10 0 9 3 22 6 31 5 12 0 16 -20 16 -14 0 -26 -4 -26 -10z"/>
<path d="M2650 1310 c0 -16 5 -30 10 -30 6 0 10 14 10 30 0 17 -4 30 -10 30
-5 0 -10 -13 -10 -30z"/>
<path d="M2724 1325 c-4 -8 -4 -22 0 -30 6 -17 46 -21 46 -4 0 6 -7 9 -15 5
-10 -4 -15 1 -15 14 0 13 5 18 15 14 8 -4 15 -1 15 5 0 17 -40 13 -46 -4z"/>
<path d="M2820 1330 c-12 -7 -12 -11 1 -26 9 -11 9 -15 2 -10 -8 4 -13 2 -13
-4 0 -22 35 -5 36 18 2 27 -7 34 -26 22z"/>
<path d="M695 1300 c3 -5 8 -10 11 -10 2 0 4 5 4 10 0 6 -5 10 -11 10 -5 0 -7
-4 -4 -10z"/>
<path d="M1405 1300 c3 -5 8 -10 11 -10 2 0 4 5 4 10 0 6 -5 10 -11 10 -5 0
-7 -4 -4 -10z"/>
<path d="M710 1238 c-1 -2 -2 -39 -3 -84 l-2 -81 209 -6 c115 -4 498 -7 852
-7 l642 0 1 85 c1 72 -1 85 -15 85 -14 0 -16 -11 -12 -75 l3 -75 -501 0 c-275
0 -649 3 -830 7 l-329 6 3 74 c2 47 0 73 -7 73 -6 0 -11 -1 -11 -2z"/>
<path d="M1318 3 c18 -2 45 -2 60 0 15 2 0 4 -33 4 -33 0 -45 -2 -27 -4z"/>
<path d="M1628 3 c17 -2 47 -2 65 0 17 2 3 4 -33 4 -36 0 -50 -2 -32 -4z"/>
</g>
</svg>
